<svg width="112" height="23" viewBox="0 0 112 23" fill="none" xmlns="http://www.w3.org/2000/svg">
<g clip-path="url(#clip0_2608_18987)">
<path d="M6.05308 9.25295C4.63793 9.25295 3.88756 10.088 3.88756 11.5715V17.9824H0V5.41638H2.18282L3.54697 6.86613C4.19536 5.92817 5.16702 5.41638 6.48018 5.41638H7.65673V9.25295H6.05399H6.05308Z" fill="black"/>
<path d="M8.59668 5.41638H12.4842V12.4757C12.4842 13.7889 13.3366 14.6922 14.5988 14.6922C15.8609 14.6922 16.696 13.7889 16.696 12.4757V5.41638H20.5836V17.9833H18.4007L17.0712 16.5682C16.1678 17.6428 14.8884 18.2729 13.3885 18.2729C10.5582 18.2729 8.59759 16.2094 8.59759 13.1915V5.41638H8.59668Z" fill="black"/>
<path d="M33.8103 17.9834H29.9227V10.975C29.9227 9.62817 29.053 8.7075 27.7572 8.7075C26.4613 8.7075 25.5917 9.62817 25.5917 10.975V17.9834H21.7041V5.41642H23.8869L25.2338 6.84887C26.1371 5.75791 27.433 5.12683 28.9683 5.12683C31.8332 5.12683 33.8112 7.22405 33.8112 10.2765V17.9834H33.8103Z" fill="black"/>
<path d="M33.3857 5.41638H37.4436L39.3532 12.544L41.6553 5.41638H44.4856L46.7878 12.5777L48.6974 5.41638H52.432L48.4761 17.9833H45.083L42.8492 11.0779L40.5981 17.9833H37.4099L33.3857 5.41638Z" fill="black"/>
<path d="M57.737 5.12683C61.0444 5.12683 63.0397 6.95177 63.0397 9.98605V17.9834H60.8404L59.6985 16.7558C58.8461 17.7448 57.6186 18.273 56.1351 18.273C53.4924 18.273 51.6338 16.6365 51.6338 14.3171C51.6338 11.8447 53.4414 10.4122 56.5786 10.4122H59.2559V10.0034C59.2559 8.92879 58.6594 8.34962 57.5339 8.34962C56.5276 8.34962 55.8801 8.8614 55.8118 9.71377H52.0099C52.2312 6.93447 54.4823 5.12683 57.7388 5.12683L57.737 5.12683ZM59.2541 13.4137V12.8683H56.9866C56.0149 12.8683 55.4521 13.3117 55.4521 14.0785C55.4521 14.8972 56.1169 15.3917 57.2252 15.3917C58.5383 15.3917 59.2541 14.7096 59.2541 13.4137Z" fill="black"/>
<path d="M69.4175 22.1605H65.3087L67.5079 16.8915L62.4092 5.41638H66.9451L69.5878 12.2535L72.0775 5.41638H76.1864L69.4175 22.1605Z" fill="black"/>
</g>
<path d="M111.997 1.47546V17.976H109.956V1.47546H111.997Z" fill="black"/>
<path d="M102.879 1.47546C106.645 1.47546 108.346 3.22515 108.346 6.06841C108.346 8.79015 106.475 10.7586 102.708 10.7586H98.1398V17.976H96.0742V1.47546H102.879ZM98.1398 9.03316H102.538C105.139 9.03316 106.281 7.8424 106.281 6.06841C106.281 4.22151 105.139 3.20085 102.538 3.20085H98.1398V9.03316Z" fill="black"/>
<path d="M79.8389 17.976L86.3516 1.47546H88.563L94.8571 17.976H92.6699L91.0175 13.4317H83.7514L82.026 17.976H79.8389ZM84.3832 11.7063H90.3856L87.4452 3.58968L84.3832 11.7063Z" fill="black"/>
<defs>
<clipPath id="clip0_2608_18987">
<rect width="76.1992" height="16.9891" fill="black" transform="translate(0 5.14575)"/>
</clipPath>
</defs>
</svg>
