<svg width="250" height="250" viewBox="0 0 250 250" fill="none" xmlns="http://www.w3.org/2000/svg">
<rect width="250" height="250" fill="black"/>
<g clip-path="url(#clip0_2_4)">
<path d="M168.912 206.62C149.065 208.433 132.47 185.19 119.749 173.401C113.316 219.721 43.278 215.33 43.3258 168.341C43.3497 148.606 43.3258 100.376 43.3258 81.2611C43.3258 74.3882 45.2149 67.4676 48.7539 61.5971C55.4731 50.2139 68.4573 42.8637 81.6807 43.0069C101.599 43.0308 149.567 42.983 168.912 43.0069C215.97 43.0069 220.443 112.977 173.933 119.277L196.005 141.304C220.251 164.093 202.054 207.622 168.912 206.62ZM158.223 179.056C171.901 193.137 193.732 171.325 179.648 157.674L141.389 119.491H119.988C119.988 121.568 119.988 139.37 119.988 140.874L153.058 173.877L158.223 179.056ZM66.4965 168.365C66.1857 187.934 97.104 188.006 96.7932 168.365V81.2611C97.0562 71.5007 86.7262 63.7448 77.4004 66.7517C76.994 66.871 76.6114 66.9903 76.2526 67.1335C70.3942 69.3052 66.3292 75.295 66.4965 81.5475V168.365ZM168.912 96.3671C188.568 96.6773 188.544 65.821 168.912 66.1312H116.951C120.896 74.4359 119.892 87.3703 119.964 96.3671C122.786 96.3671 167.525 96.3671 168.912 96.3671Z" fill="white"/>
</g>
<defs>
<clipPath id="clip0_2_4">
<rect width="165" height="164" fill="white" transform="translate(43 43)"/>
</clipPath>
</defs>
</svg>
